SplineFontDB: 3.2
FontName: ConnectionII
FullName: Connection II
FamilyName: Connection II
Weight: Regular
Copyright: Copyright (c) 2019, Jasper, Robert Jablonski @ KineticPlasma Fonts, All Rights Reserved.
Version: 0.2
ItalicAngle: 0
UnderlinePosition: -150
UnderlineWidth: 50
Ascent: 800
Descent: 200
InvalidEm: 0
sfntRevision: 0x00003333
LayerCount: 2
Layer: 0 0 "Back" 1
Layer: 1 0 "Fore" 0
XUID: [1021 201 465736242 1447530]
StyleMap: 0x0040
FSType: 0
OS2Version: 4
OS2_WeightWidthSlopeOnly: 0
OS2_UseTypoMetrics: 1
CreationTime: 1497824401
ModificationTime: 1773527955
PfmFamily: 17
TTFWeight: 400
TTFWidth: 5
LineGap: 90
VLineGap: 0
Panose: 2 0 5 3 0 0 0 0 0 0
OS2TypoAscent: 800
OS2TypoAOffset: 0
OS2TypoDescent: -200
OS2TypoDOffset: 0
OS2TypoLinegap: 90
OS2WinAscent: 800
OS2WinAOffset: 0
OS2WinDescent: 300
OS2WinDOffset: 0
HheadAscent: 800
HheadAOffset: 0
HheadDescent: -300
HheadDOffset: 0
OS2SubXSize: 650
OS2SubYSize: 699
OS2SubXOff: 0
OS2SubYOff: 140
OS2SupXSize: 650
OS2SupYSize: 699
OS2SupXOff: 0
OS2SupYOff: 479
OS2StrikeYSize: 49
OS2StrikeYPos: 258
OS2CapHeight: 700
OS2XHeight: 500
OS2Vendor: 'KPFi'
OS2CodePages: 00000001.00000000
OS2UnicodeRanges: 00000003.10000002.00000000.00000000
Lookup: 258 0 0 "'kern' Horizontal Kerning in Latin lookup 0" { "'kern' Horizontal Kerning in Latin lookup 0 subtable"  } ['kern' ('DFLT' <'dflt' > 'latn' <'dflt' > ) ]
DEI: 91125
LangName: 1033 "" "" "" "Connection II" "" "" "" "" "" "" "" "" "" "SIL Open Font License Version 1.1" "http://scripts.sil.org/OFL"
Encoding: UnicodeBmp
UnicodeInterp: none
NameList: AGL For New Fonts
DisplaySize: -48
AntiAlias: 1
FitToEm: 0
WinInfo: 0 37 13
BeginPrivate: 8
BlueValues 21 [0 0 500 500 700 700]
OtherBlues 11 [-300 -200]
BlueScale 10 0.00833333
BlueShift 1 0
StdHW 5 [100]
StdVW 5 [100]
StemSnapH 17 [100 110 200 300]
StemSnapV 17 [100 200 300 400]
EndPrivate
BeginChars: 65537 102

StartChar: .notdef
Encoding: 65536 -1 0
Width: 500
GlyphClass: 1
Flags: MW
HStem: 0 50<100 400 100 450> 483 50<100 400 100 100>
VStem: 50 50<50 50 50 483> 400 50<50 483 483 483>
LayerCount: 2
Fore
SplineSet
50 0 m 1
 50 533 l 1
 450 533 l 1
 450 0 l 1
 50 0 l 1
100 50 m 1
 400 50 l 1
 400 483 l 1
 100 483 l 1
 100 50 l 1
EndSplineSet
EndChar

StartChar: exclam
Encoding: 33 33 2
Width: 200
GlyphClass: 1
Flags: MW
HStem: 0 100<50 150 50 150> 680 20G<50 150 150 150>
VStem: 50 100<0 100 0 100 200 700>
LayerCount: 2
Fore
SplineSet
50 0 m 1
 50 100 l 1
 150 100 l 1
 150 0 l 1
 50 0 l 1
50 200 m 1
 50 700 l 1
 150 700 l 1
 150 200 l 1
 50 200 l 1
EndSplineSet
EndChar

StartChar: quotedbl
Encoding: 34 34 3
Width: 500
GlyphClass: 1
Flags: MW
HStem: 500 100<50 150 50 150 250 350> 600 100<50 250 150 250 150 250 150 250 150 350 350 450>
VStem: 50 100<500 600 500 600> 150 100<500 600 500 600 600 700> 250 100<500 600 500 600 600 700 500 600> 350 100<500 700 600 700 600 700>
LayerCount: 2
Fore
SplineSet
50 500 m 1xa0
 50 600 l 1
 150 600 l 1
 150 500 l 1
 50 500 l 1xa0
150 600 m 1
 150 700 l 1
 250 700 l 1x50
 250 600 l 1x90
 150 600 l 1
250 500 m 1x88
 250 600 l 1x90
 350 600 l 1
 350 500 l 1
 250 500 l 1x88
350 600 m 1x88
 350 700 l 1
 450 700 l 1
 450 600 l 1x44
 350 600 l 1x88
EndSplineSet
EndChar

StartChar: numbersign
Encoding: 35 35 4
Width: 600
GlyphClass: 1
Flags: MW
HStem: 0 21G<150 250 150 150 350 450 350 350> 200 100<50 150 50 150 250 350 450 550> 400 100<50 150 50 150 250 350 450 550> 680 20G<150 250 250 250 350 450 450 450>
VStem: 150 100<0 200 0 200 300 400 500 700> 350 100<0 200 0 200 300 400 500 700>
LayerCount: 2
Fore
SplineSet
50 200 m 1
 50 300 l 1
 150 300 l 1
 150 400 l 1
 50 400 l 1
 50 500 l 1
 150 500 l 1
 150 700 l 1
 250 700 l 1
 250 500 l 1
 350 500 l 1
 350 700 l 1
 450 700 l 1
 450 500 l 1
 550 500 l 1
 550 400 l 1
 450 400 l 1
 450 300 l 1
 550 300 l 1
 550 200 l 1
 450 200 l 1
 450 0 l 1
 350 0 l 1
 350 200 l 1
 250 200 l 1
 250 0 l 1
 150 0 l 1
 150 200 l 1
 50 200 l 1
250 300 m 1
 350 300 l 1
 350 400 l 1
 250 400 l 1
 250 300 l 1
EndSplineSet
EndChar

StartChar: dollar
Encoding: 36 36 5
Width: 600
GlyphClass: 1
Flags: MW
HStem: 0 100<150 250 350 450> 100 100<50 150 50 150 50 250> 300 100<150 250 50 150 350 450> 500 100<450 550> 600 100<50 250 150 250 150 250 150 250 350 450>
VStem: 50 100<100 200 400 600> 150 300<0 100 0 100 100 200 0 100 300 400 500 600 600 700> 250 100<-100 0 -100 0 100 300 400 600 700 800> 450 100<0 300 100 300 100 300 100 400 100 300 500 600>
LayerCount: 2
Fore
SplineSet
50 100 m 1x64
 50 200 l 1
 150 200 l 1x64
 150 100 l 1
 250 100 l 1
 250 300 l 1xa5
 150 300 l 1xa2
 150 400 l 1
 250 400 l 1
 250 600 l 1
 150 600 l 1
 150 400 l 1
 50 400 l 1
 50 600 l 1
 150 600 l 1xad
 150 700 l 1xaa
 250 700 l 1
 250 800 l 1
 350 800 l 1
 350 700 l 1xa9
 450 700 l 1xaa
 450 600 l 1x32
 350 600 l 1
 350 400 l 1x29
 450 400 l 1
 450 300 l 1x2a
 550 300 l 1
 550 100 l 1x6880
 450 100 l 1
 450 0 l 1xa2
 350 0 l 1
 350 -100 l 1
 250 -100 l 1
 250 0 l 1xa1
 150 0 l 1xa2
 150 100 l 1xa4
 50 100 l 1x64
350 100 m 1xa1
 450 100 l 1
 450 300 l 1xa2
 350 300 l 1
 350 100 l 1xa1
450 500 m 1x3080
 450 600 l 1x32
 550 600 l 1
 550 500 l 1
 450 500 l 1x3080
EndSplineSet
EndChar

StartChar: percent
Encoding: 37 37 6
Width: 1000
GlyphClass: 1
Flags: MW
HStem: 0 100<150 250 150 250 650 850> 100 100<150 350 250 350 250 350 250 350> 200 100<250 350 350 450> 300 100<150 350 350 450 450 550 550 650 650 850> 400 100<450 650 550 650 550 650 550 650 650 750> 500 100<650 750> 600 100<50 350 150 350 150 350 150 350 150 450 750 850>
VStem: 50 100<400 600> 150 100<0 100 0 100> 250 100<0 200 100 200 100 200> 350 100<100 300 200 300 200 300 300 400 200 300 400 600> 450 100<200 300 200 200 300 400 400 500> 550 100<100 300 300 400 400 500> 650 100<400 600 500 600 500 600> 750 100<600 700> 850 100<0 300 100 300 100 300 100 300 100 400>
LayerCount: 2
Fore
SplineSet
50 400 m 1x09
 50 600 l 1
 150 600 l 1
 150 400 l 1x13
 50 400 l 1x09
150 0 m 1x8080
 150 100 l 1
 250 100 l 1
 250 0 l 1
 150 0 l 1x8080
150 300 m 1x10a0
 150 400 l 1
 350 400 l 1x1120
 350 300 l 1x2120
 150 300 l 1x10a0
150 600 m 1x0320
 150 700 l 1x0280
 350 700 l 1
 350 600 l 1
 150 600 l 1x0320
250 100 m 1x8080
 250 200 l 1
 350 200 l 1x4040
 350 300 l 1
 450 300 l 1x2020
 450 400 l 1x1020
 550 400 l 1x1010
 550 500 l 1
 650 500 l 1x0808
 650 600 l 1
 750 600 l 1
 750 500 l 1x0404
 650 500 l 1x0808
 650 400 l 1x1008
 550 400 l 1
 550 300 l 1x1010
 450 300 l 1
 450 200 l 1x2020
 350 200 l 1
 350 100 l 1x4040
 250 100 l 1x8080
350 400 m 1x1220
 350 600 l 1
 450 600 l 1
 450 400 l 1
 350 400 l 1x1220
550 100 m 1x4008
 550 300 l 1x5010
 650 300 l 1
 650 100 l 1x9008
 550 100 l 1x4008
650 0 m 1x8005
 650 100 l 1x8008
 850 100 l 1
 850 0 l 1
 650 0 l 1x8005
650 300 m 1x1009
 650 400 l 1
 850 400 l 1
 850 300 l 1
 650 300 l 1x1009
750 600 m 1x0404
 750 700 l 1
 850 700 l 1
 850 600 l 1x0202
 750 600 l 1x0404
850 100 m 1x8001
 850 300 l 1
 950 300 l 1
 950 100 l 1x5001
 850 100 l 1x8001
EndSplineSet
EndChar

StartChar: ampersand
Encoding: 38 38 7
Width: 700
GlyphClass: 1
Flags: MW
HStem: 0 100<150 450> 100 200<50 150 50 150 150 250 50 450 450 550> 200 100<550 650 550 550> 300 100<50 150 150 250> 500 100<450 550> 600 100<50 450 150 450 150 450 150 450 150 550>
VStem: 50 100<100 300 400 600> 150 100<100 400 300 400 300 400 300 400 300 600> 150 300<0 100 0 100 100 300 0 100 0 400 500 600 600 700> 450 100<0 200 100 200 100 300 500 600>
LayerCount: 2
Fore
SplineSet
50 100 m 1x42
 50 300 l 1
 150 300 l 1x42
 150 100 l 1x82
 450 100 l 1
 450 0 l 1
 150 0 l 1x8080
 150 100 l 1x82
 50 100 l 1x42
50 400 m 1x12
 50 600 l 1
 150 600 l 1
 150 400 l 1x16
 250 400 l 1
 250 300 l 1x15
 150 300 l 1x42
 150 400 l 1
 50 400 l 1x12
150 600 m 1
 150 700 l 1
 450 700 l 1x0480
 450 600 l 1x0880
 150 600 l 1
450 100 m 1x8080
 450 300 l 1x4040
 650 300 l 1
 650 200 l 1
 550 200 l 1x2040
 550 100 l 1x4040
 450 100 l 1x8080
450 500 m 1x0840
 450 600 l 1x0880
 550 600 l 1
 550 500 l 1
 450 500 l 1x0840
EndSplineSet
EndChar

StartChar: quotesingle
Encoding: 39 39 8
Width: 300
GlyphClass: 1
Flags: MW
HStem: 500 100<50 150 50 150> 600 100<50 250 150 250 150 250 150 250>
VStem: 50 100<500 600 500 600> 150 100<500 700 600 700 600 700>
LayerCount: 2
Fore
SplineSet
50 500 m 1xa0
 50 600 l 1
 150 600 l 1
 150 500 l 1
 50 500 l 1xa0
150 600 m 1
 150 700 l 1
 250 700 l 1
 250 600 l 1x50
 150 600 l 1
EndSplineSet
EndChar

StartChar: parenleft
Encoding: 40 40 9
Width: 300
GlyphClass: 1
Flags: MW
HStem: 0 100<150 250> 600 100<50 250 150 250 150 250 150 250>
VStem: 50 100<100 600> 150 100<0 100 0 100 0 600 0 100 600 700>
LayerCount: 2
Fore
SplineSet
50 100 m 1xe0
 50 600 l 1
 150 600 l 1xe0
 150 700 l 1
 250 700 l 1
 250 600 l 1xd0
 150 600 l 1
 150 100 l 1xe0
 250 100 l 1
 250 0 l 1
 150 0 l 1xd0
 150 100 l 1
 50 100 l 1xe0
EndSplineSet
EndChar

StartChar: parenright
Encoding: 41 41 10
Width: 300
GlyphClass: 1
Flags: MW
HStem: 0 100<50 150 50 150> 600 100<50 150 50 150 50 250>
VStem: 50 100<0 100 0 100 600 700> 150 100<0 600 100 600 100 600 100 600 100 700>
LayerCount: 2
Fore
SplineSet
50 0 m 1xe0
 50 100 l 1
 150 100 l 1
 150 0 l 1
 50 0 l 1xe0
50 600 m 1
 50 700 l 1
 150 700 l 1
 150 600 l 1xe0
 250 600 l 1
 250 100 l 1xd0
 150 100 l 1
 150 600 l 1
 50 600 l 1
EndSplineSet
EndChar

StartChar: asterisk
Encoding: 42 42 11
Width: 400
GlyphClass: 1
Flags: MW
HStem: 200 100<50 150 50 150 250 350> 300 100<50 150 150 250 250 350> 400 100<50 150 50 150 50 250 250 350>
VStem: 50 100<200 300 200 300 400 500> 150 100<200 300 200 300 300 400 400 500> 250 100<200 300 200 300 200 400 200 300 400 500>
LayerCount: 2
Fore
SplineSet
50 200 m 1x90
 50 300 l 1
 150 300 l 1x90
 150 400 l 1x50
 250 400 l 1x48
 250 300 l 1x88
 150 300 l 1
 150 200 l 1
 50 200 l 1x90
50 400 m 1x30
 50 500 l 1
 150 500 l 1x30
 150 400 l 1x50
 50 400 l 1x30
250 200 m 1x84
 250 300 l 1x88
 350 300 l 1
 350 200 l 1
 250 200 l 1x84
250 400 m 1x48
 250 500 l 1
 350 500 l 1
 350 400 l 1x24
 250 400 l 1x48
EndSplineSet
EndChar

StartChar: plus
Encoding: 43 43 12
Width: 600
GlyphClass: 1
Flags: MW
HStem: 300 100<50 250 50 250 350 550>
VStem: 250 100<100 300 100 300 400 600>
LayerCount: 2
Fore
SplineSet
50 300 m 1
 50 400 l 1
 250 400 l 1
 250 600 l 1
 350 600 l 1
 350 400 l 1
 550 400 l 1
 550 300 l 1
 350 300 l 1
 350 100 l 1
 250 100 l 1
 250 300 l 1
 50 300 l 1
EndSplineSet
EndChar

StartChar: comma
Encoding: 44 44 13
Width: 300
GlyphClass: 1
Flags: MW
HStem: 0 100<150 250 150 150>
VStem: 50 100<-100 0 -100 100>
LayerCount: 2
Fore
SplineSet
50 -100 m 1
 50 100 l 1
 250 100 l 1
 250 0 l 1
 150 0 l 1
 150 -100 l 1
 50 -100 l 1
EndSplineSet
EndChar

StartChar: hyphen
Encoding: 45 45 14
Width: 600
GlyphClass: 1
Flags: MW
HStem: 300 100<50 550 50 550>
LayerCount: 2
Fore
SplineSet
50 300 m 1
 50 400 l 1
 550 400 l 1
 550 300 l 1
 50 300 l 1
EndSplineSet
EndChar

StartChar: period
Encoding: 46 46 15
Width: 200
GlyphClass: 1
Flags: MW
HStem: 0 100<50 150 50 150>
VStem: 50 100<0 100 0 100>
LayerCount: 2
Fore
SplineSet
50 0 m 1
 50 100 l 1
 150 100 l 1
 150 0 l 1
 50 0 l 1
EndSplineSet
EndChar

StartChar: slash
Encoding: 47 47 16
Width: 800
GlyphClass: 1
Flags: MW
HStem: 0 100<50 150 50 150> 100 100<50 250 150 250 150 250 150 250> 200 100<150 350 250 350 250 350 250 350> 300 100<250 450 350 450 350 450 350 450> 400 100<350 550 450 550 450 550 450 550> 500 100<450 650 550 650 550 650 550 650> 600 100<550 750 650 750 650 750 650 750>
VStem: 50 100<0 100 0 100> 150 100<0 200 100 200 100 200> 250 100<100 300 200 300 200 300> 350 100<200 400 300 400 300 400> 450 100<300 500 400 500 400 500> 550 100<400 600 500 600 500 600> 650 100<500 700 600 700 600 700>
LayerCount: 2
Fore
SplineSet
50 0 m 1x81
 50 100 l 1
 150 100 l 1
 150 0 l 1
 50 0 l 1x81
150 100 m 1
 150 200 l 1
 250 200 l 1
 250 100 l 1x4080
 150 100 l 1
250 200 m 1
 250 300 l 1
 350 300 l 1
 350 200 l 1x2040
 250 200 l 1
350 300 m 1
 350 400 l 1
 450 400 l 1
 450 300 l 1x1020
 350 300 l 1
450 400 m 1
 450 500 l 1
 550 500 l 1
 550 400 l 1x0810
 450 400 l 1
550 500 m 1
 550 600 l 1
 650 600 l 1
 650 500 l 1x0408
 550 500 l 1
650 600 m 1
 650 700 l 1
 750 700 l 1
 750 600 l 1x0204
 650 600 l 1
EndSplineSet
EndChar

StartChar: zero
Encoding: 48 48 17
Width: 500
GlyphClass: 1
Flags: MW
HStem: 0 100<150 150> 600 100<50 150 150 150 150 150>
VStem: 50 100<100 600> 150 200<1 100 100 100 100 101 101 600 100 100 600 601 601 700 700 700> 350 100<1 601 101 601 101 601 101 601 101 701>
LayerCount: 2
Fore
SplineSet
50 100 m 1xe0
 50 600 l 1
 150 600 l 1
 150 100 l 1
 50 100 l 1xe0
150 0 m 1xd0
 150 100 l 1
 350 101 l 1xe8
 350 1 l 1
 150 0 l 1xd0
150 600 m 1
 150 700 l 1xd0
 350 701 l 1xc8
 350 601 l 1xd0
 150 600 l 1
350 101 m 1xc8
 350 601 l 1xd0
 450 601 l 1
 450 101 l 1
 350 101 l 1xc8
EndSplineSet
EndChar

StartChar: one
Encoding: 49 49 18
Width: 400
GlyphClass: 1
Flags: MW
HStem: 0 100<50 150 50 150 250 350> 500 100<50 150 50 150> 680 20G<150 250 250 250>
VStem: 150 100<100 500 500 500 600 700 100 700>
LayerCount: 2
Fore
SplineSet
50 0 m 1
 50 100 l 1
 150 100 l 1
 150 500 l 1
 50 500 l 1
 50 600 l 1
 150 600 l 1
 150 700 l 1
 250 700 l 1
 250 100 l 1
 350 100 l 1
 350 0 l 1
 50 0 l 1
EndSplineSet
EndChar

StartChar: two
Encoding: 50 50 19
Width: 500
GlyphClass: 1
Flags: MW
HStem: 0 100<150 450 150 450> 200 100<50 250 150 250 150 250 150 250> 300 100<150 350 250 350 250 350 250 350> 500 100<50 150 50 150> 600 100<50 350 150 350 150 350 150 350 150 450>
VStem: 50 100<100 200 100 200 100 200 500 600> 150 100<100 300 200 300 200 300> 250 100<200 400 300 400 300 400> 350 100<400 600>
LayerCount: 2
Fore
SplineSet
50 0 m 1xc480
 50 200 l 1
 150 200 l 1
 150 100 l 1
 450 100 l 1
 450 0 l 1
 50 0 l 1xc480
50 500 m 1x9480
 50 600 l 1
 150 600 l 1x9480
 150 700 l 1
 350 700 l 1
 350 600 l 1
 450 600 l 1
 450 400 l 1xaa80
 350 400 l 1xa9
 350 600 l 1xa880
 150 600 l 1
 150 500 l 1
 50 500 l 1x9480
150 200 m 1xc4
 150 300 l 1
 250 300 l 1
 250 200 l 1xc2
 150 200 l 1xc4
250 300 m 1
 250 400 l 1
 350 400 l 1
 350 300 l 1xa1
 250 300 l 1
EndSplineSet
EndChar

StartChar: three
Encoding: 51 51 20
Width: 500
GlyphClass: 1
Flags: MW
HStem: 0 100<150 350> 100 100<50 150 50 150 50 350> 300 100<150 350 150 350 350 450> 500 100<50 150 50 150> 600 100<50 350 150 350 150 350 150 350 150 450>
VStem: 50 100<100 200 500 600> 150 200<0 100 0 100 100 200 0 100 300 400 500 500 500 600 600 700> 350 100<0 300 100 300 100 300 100 300 100 400 400 600>
LayerCount: 2
Fore
SplineSet
50 100 m 1x64
 50 200 l 1
 150 200 l 1x64
 150 100 l 1xa4
 350 100 l 1
 350 0 l 1
 150 0 l 1xa2
 150 100 l 1xa4
 50 100 l 1x64
50 500 m 1x34
 50 600 l 1
 150 600 l 1
 150 500 l 1
 50 500 l 1x34
150 300 m 1xa2
 150 400 l 1
 350 400 l 1
 350 300 l 1xa2
 450 300 l 1
 450 100 l 1x61
 350 100 l 1
 350 300 l 1
 150 300 l 1xa2
150 600 m 1x34
 150 700 l 1
 350 700 l 1
 350 600 l 1x2a
 150 600 l 1x34
350 400 m 1
 350 600 l 1x2a
 450 600 l 1
 450 400 l 1x29
 350 400 l 1
EndSplineSet
EndChar

StartChar: four
Encoding: 52 52 21
Width: 500
GlyphClass: 1
Flags: MW
HStem: 0 21G<250 350 250 250> 300 100<150 250 150 250 350 450> 480 20G<50 150 150 150 150 250 150 150> 500 100<50 250 150 250 150 250 150 250> 680 20G<250 350 350 350>
VStem: 50 100<400 500 400 500 400 500> 250 100<0 300 0 300 400 500 500 500 600 700>
LayerCount: 2
Fore
SplineSet
50 300 m 1xde
 50 500 l 1
 150 500 l 1xee
 150 400 l 1
 250 400 l 1
 250 500 l 1xde
 150 500 l 1xee
 150 600 l 1
 250 600 l 1
 250 700 l 1
 350 700 l 1
 350 400 l 1
 450 400 l 1
 450 300 l 1
 350 300 l 1
 350 0 l 1
 250 0 l 1
 250 300 l 1
 50 300 l 1xde
EndSplineSet
EndChar

StartChar: five
Encoding: 53 53 22
Width: 500
GlyphClass: 1
Flags: MW
HStem: 0 100<50 350 50 350> 300 100<150 350> 600 100<150 450 150 150>
VStem: 50 100<400 600> 350 100<0 300 100 300 100 300 100 400 100 300>
CounterMasks: 1 e0
LayerCount: 2
Fore
SplineSet
50 0 m 1
 50 100 l 1
 350 100 l 1
 350 300 l 1
 450 300 l 1
 450 100 l 1
 350 100 l 1
 350 0 l 1
 50 0 l 1
50 400 m 1
 50 700 l 1
 450 700 l 1
 450 600 l 1
 150 600 l 1
 150 400 l 1
 350 400 l 1
 350 300 l 1
 150 300 l 1
 150 400 l 1
 50 400 l 1
EndSplineSet
EndChar

StartChar: six
Encoding: 54 54 23
Width: 500
GlyphClass: 1
Flags: MW
HStem: 0 100<150 350> 300 100<150 350 150 350 150 450> 500 100<350 450> 600 100<50 350 150 350 150 350 150 350 150 450>
VStem: 50 100<100 300 400 600> 150 200<0 100 0 100 100 300 0 100 500 600 600 700> 350 100<0 300 100 300 100 300 100 400 100 300 500 600>
LayerCount: 2
Fore
SplineSet
50 100 m 1xda
 50 600 l 1
 150 600 l 1xda
 150 700 l 1
 350 700 l 1xd4
 350 600 l 1xe4
 150 600 l 1
 150 400 l 1
 350 400 l 1
 350 300 l 1
 150 300 l 1
 150 100 l 1
 50 100 l 1xda
150 0 m 1xc4
 150 100 l 1xc8
 350 100 l 1
 350 0 l 1
 150 0 l 1xc4
350 100 m 1xc4
 350 300 l 1
 450 300 l 1
 450 100 l 1xc2
 350 100 l 1xc4
350 500 m 1xe2
 350 600 l 1xe4
 450 600 l 1
 450 500 l 1
 350 500 l 1xe2
EndSplineSet
EndChar

StartChar: seven
Encoding: 55 55 24
Width: 500
GlyphClass: 1
Flags: MW
HStem: 0 21G<150 150 150 250> 600 100<50 450 50 350>
VStem: 150 100<0 200 0 200> 250 100<0 400 200 400 200 400> 350 100<200 700 400 600 600 600>
LayerCount: 2
Fore
SplineSet
50 600 m 1xc8
 50 700 l 1
 450 700 l 1
 450 400 l 1xc8
 350 400 l 1
 350 200 l 1xd0
 250 200 l 1xe0
 250 400 l 1
 350 400 l 1xd0
 350 600 l 1
 50 600 l 1xc8
150 0 m 1xe0
 150 200 l 1
 250 200 l 1
 250 0 l 1
 150 0 l 1xe0
EndSplineSet
EndChar

StartChar: eight
Encoding: 56 56 25
Width: 500
GlyphClass: 1
Flags: MW
HStem: 0 100<150 350> 100 200<50 150 50 150 150 350 350 450> 300 100<50 150 150 350 350 450> 400 200<50 150 50 150 150 350 350 450> 600 100<50 350 150 350 150 350 150 350 150 450>
VStem: 50 100<100 300 400 600> 150 200<0 100 0 100 100 300 0 100 300 400 400 600 600 700> 350 100<0 300 100 300 100 300 100 400 100 300 400 600>
LayerCount: 2
Fore
SplineSet
50 100 m 1x44
 50 300 l 1
 150 300 l 1x44
 150 100 l 1x84
 50 100 l 1x44
50 400 m 1x14
 50 600 l 1
 150 600 l 1x14
 150 700 l 1
 350 700 l 1x0a
 350 600 l 1x12
 450 600 l 1
 450 400 l 1x11
 350 400 l 1x22
 350 600 l 1x12
 150 600 l 1x14
 150 400 l 1x24
 350 400 l 1x22
 350 300 l 1x42
 150 300 l 1x44
 150 400 l 1x24
 50 400 l 1x14
150 0 m 1x82
 150 100 l 1x84
 350 100 l 1
 350 0 l 1
 150 0 l 1x82
350 100 m 1x82
 350 300 l 1x42
 450 300 l 1
 450 100 l 1x41
 350 100 l 1x82
EndSplineSet
EndChar

StartChar: nine
Encoding: 57 57 26
Width: 500
GlyphClass: 1
Flags: MW
HStem: 0 100<150 350> 100 100<50 150 50 150 50 350> 300 100<150 350> 600 100<50 350 150 350 150 350 150 350 150 450>
VStem: 50 100<100 200 400 600> 150 200<0 100 0 100 100 200 0 100 400 600 600 700> 350 100<0 600 100 300 300 300 400 600 100 600 100 700 100 600>
LayerCount: 2
Fore
SplineSet
50 100 m 1x78
 50 200 l 1
 150 200 l 1x78
 150 100 l 1xb8
 50 100 l 1x78
50 400 m 1
 50 600 l 1
 150 600 l 1
 150 400 l 1
 50 400 l 1
150 0 m 1xb4
 150 100 l 1xb8
 350 100 l 1xb4
 350 300 l 1xb2
 150 300 l 1xb4
 150 400 l 1
 350 400 l 1xba
 350 600 l 1xb4
 450 600 l 1
 450 100 l 1x72
 350 100 l 1
 350 0 l 1
 150 0 l 1xb4
150 600 m 1
 150 700 l 1
 350 700 l 1
 350 600 l 1x34
 150 600 l 1
EndSplineSet
EndChar

StartChar: colon
Encoding: 58 58 27
Width: 200
GlyphClass: 1
Flags: MW
HStem: 0 100<50 150 50 150> 400 100<50 150 50 150>
VStem: 50 100<0 100 0 100 400 500>
LayerCount: 2
Fore
SplineSet
50 0 m 1
 50 100 l 1
 150 100 l 1
 150 0 l 1
 50 0 l 1
50 400 m 1
 50 500 l 1
 150 500 l 1
 150 400 l 1
 50 400 l 1
EndSplineSet
EndChar

StartChar: semicolon
Encoding: 59 59 28
Width: 300
GlyphClass: 1
Flags: MW
HStem: 0 100<150 250 150 150> 400 100<50 150 50 150>
VStem: 50 100<-100 0 -100 100 400 500>
LayerCount: 2
Fore
SplineSet
50 -100 m 1
 50 100 l 1
 250 100 l 1
 250 0 l 1
 150 0 l 1
 150 -100 l 1
 50 -100 l 1
50 400 m 1
 50 500 l 1
 150 500 l 1
 150 400 l 1
 50 400 l 1
EndSplineSet
EndChar

StartChar: less
Encoding: 60 60 29
Width: 400
GlyphClass: 1
Flags: MW
HStem: 100 100<250 350> 200 100<150 250> 300 100<50 150 50 150 150 250> 400 100<50 250 150 250 150 250 150 250> 500 100<150 350 250 350 250 350 250 350>
VStem: 50 100<300 400> 150 100<200 300 400 500> 250 100<100 200 100 200 100 300 100 200 500 600>
LayerCount: 2
Fore
SplineSet
50 300 m 1x24
 50 400 l 1
 150 400 l 1x24
 150 300 l 1x44
 50 300 l 1x24
150 200 m 1x42
 150 300 l 1x44
 250 300 l 1x42
 250 200 l 1x82
 150 200 l 1x42
150 400 m 1x24
 150 500 l 1
 250 500 l 1
 250 400 l 1x12
 150 400 l 1x24
250 100 m 1x81
 250 200 l 1x82
 350 200 l 1
 350 100 l 1
 250 100 l 1x81
250 500 m 1x12
 250 600 l 1
 350 600 l 1
 350 500 l 1x09
 250 500 l 1x12
EndSplineSet
EndChar

StartChar: equal
Encoding: 61 61 30
Width: 500
GlyphClass: 1
Flags: MW
HStem: 200 100<50 450 50 450> 400 100<50 450 50 450>
LayerCount: 2
Fore
SplineSet
50 200 m 1
 50 300 l 1
 450 300 l 1
 450 200 l 1
 50 200 l 1
50 400 m 1
 50 500 l 1
 450 500 l 1
 450 400 l 1
 50 400 l 1
EndSplineSet
EndChar

StartChar: greater
Encoding: 62 62 31
Width: 400
GlyphClass: 1
Flags: MW
HStem: 100 100<50 150 50 150> 200 100<50 250 150 250 150 250 150 250> 300 100<150 250 250 350> 400 100<150 250> 500 100<50 150 50 150 50 250>
VStem: 50 100<100 200 100 200 500 600> 150 100<100 300 200 300 200 300 400 500> 250 100<200 400 300 400 300 400 300 400 300 500>
LayerCount: 2
Fore
SplineSet
50 100 m 1x84
 50 200 l 1
 150 200 l 1
 150 100 l 1
 50 100 l 1x84
50 500 m 1x0c
 50 600 l 1
 150 600 l 1x0c
 150 500 l 1x14
 50 500 l 1x0c
150 200 m 1x84
 150 300 l 1
 250 300 l 1
 250 200 l 1x42
 150 200 l 1x84
150 400 m 1x12
 150 500 l 1x14
 250 500 l 1x12
 250 400 l 1x22
 150 400 l 1x12
250 300 m 1x42
 250 400 l 1x22
 350 400 l 1
 350 300 l 1x21
 250 300 l 1x42
EndSplineSet
EndChar

StartChar: question
Encoding: 63 63 32
Width: 500
GlyphClass: 1
Flags: MW
HStem: 0 100<150 250 150 250> 300 100<250 350 250 250> 500 100<50 150 50 150> 600 100<50 350 150 350 150 350 150 350 150 450>
VStem: 50 100<500 600> 150 100<0 100 0 100 200 300> 150 200<300 400 300 400 300 400 500 600 500 500 600 700> 350 100<300 600 400 600 400 600 400 600 400 700>
LayerCount: 2
Fore
SplineSet
50 500 m 1xe8
 50 600 l 1
 150 600 l 1
 150 500 l 1
 50 500 l 1xe8
150 0 m 1xc4
 150 100 l 1
 250 100 l 1
 250 0 l 1
 150 0 l 1xc4
150 200 m 1
 150 400 l 1
 350 400 l 1
 350 300 l 1xc2
 250 300 l 1
 250 200 l 1
 150 200 l 1
150 600 m 1xe8
 150 700 l 1
 350 700 l 1
 350 600 l 1xd2
 150 600 l 1xe8
350 400 m 1
 350 600 l 1xd2
 450 600 l 1
 450 400 l 1xd1
 350 400 l 1
EndSplineSet
EndChar

StartChar: at
Encoding: 64 64 33
Width: 800
GlyphClass: 1
Flags: MW
HStem: 0 100<150 650> 200 100<350 450 550 650 250 350> 300 100<250 350 250 350 350 450> 400 100<250 550 350 550 350 450 350 550> 600 100<50 650 150 650 150 650 150 650 150 750>
VStem: 50 100<100 600> 250 100<300 400> 450 100<300 400 400 400> 650 100<300 600 200 600 200 700 200 600>
LayerCount: 2
Fore
SplineSet
50 100 m 1xdf80
 50 600 l 1
 150 600 l 1
 150 700 l 1
 650 700 l 1
 650 600 l 1
 750 600 l 1
 750 200 l 1
 350 200 l 1
 350 300 l 1
 450 300 l 1
 450 400 l 1xdf80
 350 400 l 1xaf80
 350 300 l 1xcf80
 250 300 l 1
 250 400 l 1
 350 400 l 1xaf80
 350 500 l 1
 550 500 l 1
 550 300 l 1
 650 300 l 1
 650 600 l 1
 150 600 l 1
 150 100 l 1
 650 100 l 1
 650 0 l 1
 150 0 l 1
 150 100 l 1
 50 100 l 1xdf80
EndSplineSet
EndChar

StartChar: A
Encoding: 65 65 34
Width: 600
GlyphClass: 1
Flags: MW
HStem: 0 21G<50 50 50 150 450 450 450 550> 200 100<150 450 150 450> 500 100<50 250 150 250 150 250 350 450 150 250> 680 20G<250 350 350 350>
VStem: 50 100<0 200 300 500> 250 100<600 700 600 700> 450 100<0 200 200 200 300 500 0 500 0 600 0 500>
CounterMasks: 1 0e
LayerCount: 2
Fore
SplineSet
50 0 m 1
 50 500 l 1
 150 500 l 1
 150 600 l 1
 250 600 l 1
 250 700 l 1
 350 700 l 1
 350 600 l 1
 450 600 l 1
 450 500 l 1
 550 500 l 1
 550 0 l 1
 450 0 l 1
 450 200 l 1
 150 200 l 1
 150 0 l 1
 50 0 l 1
150 300 m 1
 450 300 l 1
 450 500 l 1
 150 500 l 1
 150 300 l 1
EndSplineSet
EndChar

StartChar: B
Encoding: 66 66 35
Width: 600
GlyphClass: 1
Flags: MW
HStem: 0 100<150 450 150 450> 400 100<150 450 150 450 450 550> 500 100<150 450 150 450 450 550 150 450> 600 100<150 450 150 150 50 550>
VStem: 50 100<100 400 500 600> 50 400<0 100 100 400 400 500 500 600 600 700> 450 100<0 400 100 400 100 400 100 500 100 400 500 600>
LayerCount: 2
Fore
SplineSet
50 0 m 1xd4
 50 700 l 1
 450 700 l 1xd4
 450 600 l 1xa4
 550 600 l 1
 550 500 l 1xa2
 450 500 l 1xc4
 450 600 l 1xa4
 150 600 l 1
 150 500 l 1xd8
 450 500 l 1
 450 400 l 1xd4
 550 400 l 1
 550 100 l 1xd2
 450 100 l 1
 450 400 l 1xd4
 150 400 l 1
 150 100 l 1xd8
 450 100 l 1
 450 0 l 1
 50 0 l 1xd4
EndSplineSet
EndChar

StartChar: C
Encoding: 67 67 36
Width: 600
GlyphClass: 1
Flags: MW
HStem: 0 100<150 450> 100 100<150 550 450 550 450 550 450 550> 500 100<450 550> 600 100<50 450 150 450 150 450 150 450 150 550>
VStem: 50 100<100 600> 150 300<0 100 0 100 100 200 500 600 0 100 600 700> 450 100<0 200 100 200 100 200 500 600>
LayerCount: 2
Fore
SplineSet
50 100 m 1x48
 50 600 l 1
 150 600 l 1x58
 150 700 l 1
 450 700 l 1x54
 450 600 l 1x24
 150 600 l 1
 150 100 l 1x98
 450 100 l 1
 450 0 l 1
 150 0 l 1x94
 150 100 l 1x98
 50 100 l 1x48
450 100 m 1x84
 450 200 l 1
 550 200 l 1
 550 100 l 1x42
 450 100 l 1x84
450 500 m 1x22
 450 600 l 1x24
 550 600 l 1
 550 500 l 1
 450 500 l 1x22
EndSplineSet
EndChar

StartChar: D
Encoding: 68 68 37
Width: 600
GlyphClass: 1
Flags: MW
HStem: 0 100<150 450 150 450> 600 100<150 450 150 150 50 550>
VStem: 50 100<100 600 100 700> 450 100<0 600 100 600 100 600 100 700 100 600>
LayerCount: 2
Fore
SplineSet
50 0 m 1
 50 700 l 1
 450 700 l 1
 450 600 l 1
 550 600 l 1
 550 100 l 1
 450 100 l 1
 450 600 l 1
 150 600 l 1
 150 100 l 1
 450 100 l 1
 450 0 l 1
 50 0 l 1
EndSplineSet
EndChar

StartChar: E
Encoding: 69 69 38
Width: 500
GlyphClass: 1
Flags: MW
HStem: 0 100<150 450 150 450> 300 100<150 350 150 350> 600 100<150 450 150 150>
VStem: 50 100<100 300 400 600>
CounterMasks: 1 e0
LayerCount: 2
Fore
SplineSet
50 0 m 1
 50 700 l 1
 450 700 l 1
 450 600 l 1
 150 600 l 1
 150 400 l 1
 350 400 l 1
 350 300 l 1
 150 300 l 1
 150 100 l 1
 450 100 l 1
 450 0 l 1
 50 0 l 1
EndSplineSet
EndChar

StartChar: F
Encoding: 70 70 39
Width: 500
GlyphClass: 1
Flags: MW
HStem: 0 21G<50 50 50 150> 300 100<150 350 150 350> 600 100<150 450 150 150>
VStem: 50 100<0 300 400 600>
LayerCount: 2
Fore
SplineSet
50 0 m 1
 50 700 l 1
 450 700 l 1
 450 600 l 1
 150 600 l 1
 150 400 l 1
 350 400 l 1
 350 300 l 1
 150 300 l 1
 150 0 l 1
 50 0 l 1
EndSplineSet
EndChar

StartChar: G
Encoding: 71 71 40
Width: 600
GlyphClass: 1
Flags: MW
HStem: 0 100<150 450> 300 100<250 450 250 550> 500 100<450 550> 600 100<50 450 150 450 150 450 150 450 150 550>
VStem: 50 100<100 600> 150 300<0 100 0 100 100 300 500 600 0 100 600 700> 450 100<0 400 100 300 300 300 500 600>
LayerCount: 2
Fore
SplineSet
50 100 m 1xd8
 50 600 l 1
 150 600 l 1xd8
 150 700 l 1
 450 700 l 1xd4
 450 600 l 1xe4
 150 600 l 1
 150 100 l 1xd8
 450 100 l 1xd4
 450 300 l 1
 250 300 l 1
 250 400 l 1
 550 400 l 1
 550 100 l 1xd2
 450 100 l 1
 450 0 l 1
 150 0 l 1xd4
 150 100 l 1
 50 100 l 1xd8
450 500 m 1xe2
 450 600 l 1xe4
 550 600 l 1
 550 500 l 1
 450 500 l 1xe2
EndSplineSet
EndChar

StartChar: H
Encoding: 72 72 41
Width: 600
GlyphClass: 1
Flags: MW
HStem: 0 21G<50 50 50 150 450 450 450 550> 300 100<150 450 150 450> 680 20G<50 150 150 150 450 550 550 550>
VStem: 50 100<0 300 400 700> 450 100<0 300 300 300 400 700 0 700>
LayerCount: 2
Fore
SplineSet
50 0 m 1
 50 700 l 1
 150 700 l 1
 150 400 l 1
 450 400 l 1
 450 700 l 1
 550 700 l 1
 550 0 l 1
 450 0 l 1
 450 300 l 1
 150 300 l 1
 150 0 l 1
 50 0 l 1
EndSplineSet
EndChar

StartChar: I
Encoding: 73 73 42
Width: 200
GlyphClass: 1
Flags: MW
HStem: 0 21G<50 50 50 150> 680 20G<50 150 150 150>
VStem: 50 100<0 700 0 700>
LayerCount: 2
Fore
SplineSet
50 0 m 1
 50 700 l 1
 150 700 l 1
 150 0 l 1
 50 0 l 1
EndSplineSet
EndChar

StartChar: J
Encoding: 74 74 43
Width: 500
GlyphClass: 1
Flags: MW
HStem: 0 100<150 350> 100 100<50 150 50 150 50 350> 680 20G<350 450 450 450>
VStem: 50 100<100 200> 350 100<0 700 100 700 100 700>
LayerCount: 2
Fore
SplineSet
50 100 m 1x78
 50 200 l 1
 150 200 l 1x78
 150 100 l 1xb8
 50 100 l 1x78
150 0 m 1xb8
 150 100 l 1
 350 100 l 1
 350 0 l 1
 150 0 l 1xb8
350 100 m 1
 350 700 l 1
 450 700 l 1
 450 100 l 1x78
 350 100 l 1
EndSplineSet
EndChar

StartChar: K
Encoding: 75 75 44
Width: 600
GlyphClass: 1
Flags: MW
HStem: 0 100<350 450 450 550> 100 100<350 450 250 350> 200 100<250 350 150 250> 400 100<150 350 250 350 250 350 250 350> 500 100<250 450 350 450 350 450 350 450> 600 100<450 550>
VStem: 50 100<0 300 400 700> 250 100<200 300 400 500> 350 100<100 200 500 600> 450 100<0 100 0 100 0 200 0 100 600 700>
LayerCount: 2
Fore
SplineSet
50 0 m 1xa3
 50 700 l 1
 150 700 l 1
 150 400 l 1
 250 400 l 1
 250 500 l 1
 350 500 l 1xb7
 350 600 l 1
 450 600 l 1x0a80
 450 700 l 1
 550 700 l 1
 550 600 l 1x0640
 450 600 l 1
 450 500 l 1x0a80
 350 500 l 1
 350 400 l 1
 250 400 l 1
 250 300 l 1
 350 300 l 1x33
 350 200 l 1x43
 450 200 l 1x4280
 450 100 l 1x8280
 550 100 l 1
 550 0 l 1
 450 0 l 1x8240
 450 100 l 1x8280
 350 100 l 1x4280
 350 200 l 1x43
 250 200 l 1
 250 300 l 1
 150 300 l 1
 150 0 l 1
 50 0 l 1xa3
EndSplineSet
EndChar

StartChar: L
Encoding: 76 76 45
Width: 500
GlyphClass: 1
Flags: MW
HStem: 0 100<150 450 150 450> 680 20G<50 150 150 150>
VStem: 50 100<100 700 100 700 100 700>
LayerCount: 2
Fore
SplineSet
50 0 m 1
 50 700 l 1
 150 700 l 1
 150 100 l 1
 450 100 l 1
 450 0 l 1
 50 0 l 1
EndSplineSet
EndChar

StartChar: M
Encoding: 77 77 46
Width: 800
GlyphClass: 1
Flags: MW
HStem: 0 21G<50 50 50 150 650 650 650 750> 200 300<150 250 250 350 150 450 450 550> 500 200<150 250 150 250 150 350 150 350 550 650>
VStem: 50 100<0 500 0 600> 150 100<200 500 200 500 600 700> 250 100<300 500> 350 100<100 200 100 200 300 500> 450 100<100 500 300 500 200 500> 550 100<200 500 200 200 600 700> 650 100<0 500 500 500 0 700 0 600>
LayerCount: 2
Fore
SplineSet
50 0 m 1xb4
 50 600 l 1xb4
 150 600 l 1
 150 700 l 1
 250 700 l 1xa8
 250 500 l 1xc4
 150 500 l 1
 150 0 l 1
 50 0 l 1xb4
250 200 m 1xc4
 250 500 l 1
 350 500 l 1
 350 300 l 1
 450 300 l 1
 450 500 l 1
 550 500 l 1xc5
 550 200 l 1
 450 200 l 1
 450 100 l 1
 350 100 l 1
 350 200 l 1xc280
 250 200 l 1xc4
550 500 m 1
 550 700 l 1
 650 700 l 1
 650 600 l 1xa080
 750 600 l 1
 750 0 l 1
 650 0 l 1
 650 500 l 1xa040
 550 500 l 1
EndSplineSet
EndChar

StartChar: N
Encoding: 78 78 47
Width: 600
GlyphClass: 1
Flags: MW
HStem: 0 21G<50 50 50 150 450 450 450 550> 300 110<150 250 250 350 150 450> 680 20G<50 150 150 150 450 550 550 550>
VStem: 50 100<0 410 600 700> 50 200<300 410 410 600 300 700> 250 100<300 410> 350 200<100 300 300 300 300 410 300 300> 450 100<0 100 100 100 300 700 0 700>
LayerCount: 2
Fore
SplineSet
50 0 m 1xf0
 50 700 l 1
 150 700 l 1
 150 600 l 1xf0
 250 600 l 1
 250 410 l 1xe8
 150 410 l 1
 150 0 l 1
 50 0 l 1xf0
250 300 m 1xe4
 250 410 l 1xe8
 350 410 l 1
 350 300 l 1
 250 300 l 1xe4
350 100 m 1xe2
 350 300 l 1
 450 300 l 1
 450 700 l 1
 550 700 l 1
 550 0 l 1
 450 0 l 1
 450 100 l 1xe5
 350 100 l 1xe2
EndSplineSet
EndChar

StartChar: O
Encoding: 79 79 48
Width: 600
GlyphClass: 1
Flags: MW
HStem: 0 100<150 450> 600 100<50 450 150 450 150 450 150 450 150 550>
VStem: 50 100<100 600> 150 300<0 100 0 100 100 600 0 100 600 700> 450 100<0 600 100 600 100 600 100 600 100 700>
LayerCount: 2
Fore
SplineSet
50 100 m 1xe0
 50 600 l 1
 150 600 l 1
 150 100 l 1
 50 100 l 1xe0
150 0 m 1xd0
 150 100 l 1xe0
 450 100 l 1
 450 0 l 1
 150 0 l 1xd0
150 600 m 1
 150 700 l 1
 450 700 l 1
 450 600 l 1xd0
 150 600 l 1
450 100 m 1
 450 600 l 1xd0
 550 600 l 1
 550 100 l 1xc8
 450 100 l 1
EndSplineSet
EndChar

StartChar: P
Encoding: 80 80 49
Width: 600
GlyphClass: 1
Flags: MW
HStem: 0 21G<50 50 50 150> 300 100<150 450 150 450> 600 100<150 450 150 150 50 550>
VStem: 50 100<0 300 400 600> 450 100<300 600 400 600 400 600 400 700 400 600>
LayerCount: 2
Fore
SplineSet
50 0 m 1
 50 700 l 1
 450 700 l 1
 450 600 l 1
 150 600 l 1
 150 400 l 1
 450 400 l 1
 450 300 l 1
 150 300 l 1
 150 0 l 1
 50 0 l 1
450 400 m 1
 450 600 l 1
 550 600 l 1
 550 400 l 1
 450 400 l 1
EndSplineSet
EndChar

StartChar: Q
Encoding: 81 81 50
Width: 700
GlyphClass: 1
Flags: MW
HStem: 0 100<150 450> 600 100<50 450 150 450 150 450 150 450 150 550>
VStem: 50 100<100 600> 450 100<100 600> 550 100<-100 0 0 0 -100 600 -100 100>
LayerCount: 2
Fore
SplineSet
50 100 m 1xe0
 50 600 l 1
 150 600 l 1
 150 100 l 1
 50 100 l 1xe0
150 0 m 1
 150 100 l 1
 450 100 l 1
 450 600 l 1
 150 600 l 1
 150 700 l 1
 450 700 l 1
 450 600 l 1
 550 600 l 1
 550 100 l 1xf0
 650 100 l 1
 650 -100 l 1
 550 -100 l 1
 550 0 l 1xe8
 150 0 l 1
EndSplineSet
EndChar

StartChar: R
Encoding: 82 82 51
Width: 600
GlyphClass: 1
Flags: MW
HStem: 0 21G<50 50 50 150 450 450 450 550> 300 100<150 350 150 450> 600 100<150 450 150 150 50 550>
VStem: 50 100<0 300 400 600> 350 100<200 300 300 300> 450 100<0 200 0 200 0 400 0 200 400 600>
LayerCount: 2
Fore
SplineSet
50 0 m 1xf8
 50 700 l 1
 450 700 l 1
 450 600 l 1
 150 600 l 1
 150 400 l 1
 450 400 l 1xf4
 450 200 l 1xf8
 550 200 l 1
 550 0 l 1
 450 0 l 1xf4
 450 200 l 1
 350 200 l 1
 350 300 l 1
 150 300 l 1
 150 0 l 1
 50 0 l 1xf8
450 400 m 1
 450 600 l 1
 550 600 l 1
 550 400 l 1
 450 400 l 1
EndSplineSet
EndChar

StartChar: S
Encoding: 83 83 52
Width: 600
GlyphClass: 1
Flags: MW
HStem: 0 100<150 450> 100 100<50 150 50 150 50 450> 300 100<150 450> 500 100<450 550> 600 100<50 450 150 450 150 450 150 450 150 550>
VStem: 50 100<100 200 400 600> 150 300<0 100 0 100 100 200 0 100 300 400 500 600 600 700> 450 100<0 300 100 300 100 300 100 300 100 400 500 600>
LayerCount: 2
Fore
SplineSet
50 100 m 1x64
 50 200 l 1
 150 200 l 1x64
 150 100 l 1xa4
 50 100 l 1x64
50 400 m 1
 50 600 l 1
 150 600 l 1x2c
 150 400 l 1
 50 400 l 1
150 0 m 1xa2
 150 100 l 1xa4
 450 100 l 1
 450 0 l 1
 150 0 l 1xa2
150 300 m 1x22
 150 400 l 1x24
 450 400 l 1
 450 300 l 1
 150 300 l 1x22
150 600 m 1x2c
 150 700 l 1
 450 700 l 1x2a
 450 600 l 1x32
 150 600 l 1x2c
450 100 m 1xa2
 450 300 l 1xa2
 550 300 l 1
 550 100 l 1x61
 450 100 l 1xa2
450 500 m 1x31
 450 600 l 1x32
 550 600 l 1
 550 500 l 1
 450 500 l 1x31
EndSplineSet
EndChar

StartChar: T
Encoding: 84 84 53
Width: 600
GlyphClass: 1
Flags: MW
HStem: 0 21G<250 350 250 250> 600 100<50 550 50 250 350 350 350 550>
VStem: 250 100<0 600 0 600>
LayerCount: 2
Fore
SplineSet
50 600 m 1
 50 700 l 1
 550 700 l 1
 550 600 l 1
 350 600 l 1
 350 0 l 1
 250 0 l 1
 250 600 l 1
 50 600 l 1
EndSplineSet
EndChar

StartChar: U
Encoding: 85 85 54
Width: 600
GlyphClass: 1
Flags: MW
HStem: 0 100<150 450> 680 20G<50 150 150 150 450 550 550 550>
VStem: 50 100<100 700> 450 100<0 700 100 700 100 700>
LayerCount: 2
Fore
SplineSet
50 100 m 1
 50 700 l 1
 150 700 l 1
 150 100 l 1
 50 100 l 1
150 0 m 1
 150 100 l 1
 450 100 l 1
 450 0 l 1
 150 0 l 1
450 100 m 1
 450 700 l 1
 550 700 l 1
 550 100 l 1
 450 100 l 1
EndSplineSet
EndChar

StartChar: V
Encoding: 86 86 55
Width: 600
GlyphClass: 1
Flags: MW
HStem: 0 21G<250 250 250 350> 200 200<50 150 150 250 350 450> 400 300<50 150 50 150 50 250 50 250 50 450 450 550>
VStem: 50 100<400 700> 150 100<200 400> 250 100<0 200 0 200 200 400 0 200> 350 100<0 400 200 400 200 400> 450 100<200 700 400 700 400 700>
LayerCount: 2
Fore
SplineSet
50 400 m 1xb0
 50 700 l 1
 150 700 l 1xb0
 150 400 l 1xd0
 50 400 l 1xb0
150 200 m 1xc8
 150 400 l 1xd0
 250 400 l 1
 250 200 l 1
 150 200 l 1xc8
250 0 m 1xc4
 250 200 l 1xc8
 350 200 l 1xc4
 350 400 l 1
 450 400 l 1
 450 200 l 1xc2
 350 200 l 1
 350 0 l 1
 250 0 l 1xc4
450 400 m 1xc2
 450 700 l 1
 550 700 l 1
 550 400 l 1xa1
 450 400 l 1xc2
EndSplineSet
EndChar

StartChar: W
Encoding: 87 87 56
Width: 1000
GlyphClass: 1
Flags: MW
HStem: 0 200<250 350 150 250 650 750> 200 200<150 250 50 150 350 450 550 650 750 850> 400 300<50 150 50 150 50 250 50 250 50 450 450 550 850 950>
VStem: 50 100<400 700> 150 100<200 400> 250 100<0 200 0 200 200 400 0 200> 350 100<0 400 200 400 200 400> 450 100<200 400 200 400 400 700> 550 100<200 400> 650 100<0 200 0 200 200 400 0 200> 750 100<0 400 200 400 200 400> 850 100<200 700 400 700 400 700>
LayerCount: 2
Fore
SplineSet
50 400 m 1x30
 50 700 l 1
 150 700 l 1x30
 150 400 l 1x50
 250 400 l 1x48
 250 200 l 1x88
 350 200 l 1
 350 0 l 1
 250 0 l 1x84
 250 200 l 1x88
 150 200 l 1x48
 150 400 l 1x50
 50 400 l 1x30
350 200 m 1x84
 350 400 l 1
 450 400 l 1
 450 200 l 1x42
 350 200 l 1x84
450 400 m 1
 450 700 l 1
 550 700 l 1x21
 550 400 l 1x41
 450 400 l 1
550 200 m 1x4080
 550 400 l 1x41
 650 400 l 1x4080
 650 200 l 1x8080
 550 200 l 1x4080
650 0 m 1x8040
 650 200 l 1x8080
 750 200 l 1x8040
 750 400 l 1
 850 400 l 1
 850 200 l 1x4020
 750 200 l 1
 750 0 l 1
 650 0 l 1x8040
850 400 m 1x4020
 850 700 l 1
 950 700 l 1
 950 400 l 1x2010
 850 400 l 1x4020
EndSplineSet
EndChar

StartChar: X
Encoding: 88 88 57
Width: 600
GlyphClass: 1
Flags: MW
HStem: 0 200<50 150 50 150 450 550> 200 100<50 250 150 250 150 250 150 250 350 450> 300 100<150 250 250 350 150 250 150 250 350 450> 400 100<150 250 350 450> 500 200<50 150 50 150 50 250 50 250 450 550>
VStem: 50 100<0 200 0 200 500 700> 150 100<0 300 200 300 200 300 400 500> 250 100<200 300 200 300 300 400 400 500> 350 100<200 300 400 500> 450 100<0 200 0 200 0 300 0 200 500 700>
LayerCount: 2
Fore
SplineSet
50 0 m 1x84
 50 200 l 1
 150 200 l 1
 150 0 l 1
 50 0 l 1x84
50 500 m 1x0c
 50 700 l 1
 150 700 l 1x0c
 150 500 l 1x14
 250 500 l 1x12
 250 400 l 1x22
 150 400 l 1x12
 150 500 l 1x14
 50 500 l 1x0c
150 200 m 1x84
 150 300 l 1
 250 300 l 1
 250 200 l 1x42
 150 200 l 1x84
250 300 m 1
 250 400 l 1x22
 350 400 l 1x21
 350 300 l 1x41
 250 300 l 1
350 200 m 1x4080
 350 300 l 1x41
 450 300 l 1x4080
 450 200 l 1x8080
 350 200 l 1x4080
350 400 m 1x21
 350 500 l 1
 450 500 l 1
 450 400 l 1x1080
 350 400 l 1x21
450 0 m 1x8040
 450 200 l 1x8080
 550 200 l 1
 550 0 l 1
 450 0 l 1x8040
450 500 m 1x1080
 450 700 l 1
 550 700 l 1
 550 500 l 1x0840
 450 500 l 1x1080
EndSplineSet
EndChar

StartChar: Y
Encoding: 89 89 58
Width: 600
GlyphClass: 1
Flags: MW
HStem: 0 21G<250 250 250 350> 300 200<50 150 150 250 350 450> 500 200<50 150 50 150 50 250 50 250 450 550>
VStem: 50 100<500 700> 150 100<300 500> 250 100<0 300 0 300 300 500 0 300> 350 100<0 500 300 500 300 500> 450 100<300 700 500 700 500 700>
LayerCount: 2
Fore
SplineSet
50 500 m 1xb0
 50 700 l 1
 150 700 l 1xb0
 150 500 l 1xd0
 50 500 l 1xb0
150 300 m 1xc8
 150 500 l 1xd0
 250 500 l 1
 250 300 l 1
 150 300 l 1xc8
250 0 m 1xc4
 250 300 l 1xc8
 350 300 l 1xc4
 350 500 l 1
 450 500 l 1
 450 300 l 1xc2
 350 300 l 1
 350 0 l 1
 250 0 l 1xc4
450 500 m 1xc2
 450 700 l 1
 550 700 l 1
 550 500 l 1xa1
 450 500 l 1xc2
EndSplineSet
EndChar

StartChar: Z
Encoding: 90 90 59
Width: 600
GlyphClass: 1
Flags: MW
HStem: 0 100<150 550 150 550> 200 100<50 250 150 250 150 250 150 250> 300 100<150 350 250 350 250 350 250 350> 400 100<250 450 350 450 350 450 350 450> 500 21G<350 450 450 450 450 550 450 450> 600 100<50 550 50 450>
VStem: 50 100<100 200 100 200 100 200> 150 100<100 300 200 300 200 300> 250 100<200 400 300 400 300 400> 350 100<300 500 400 500 400 500> 450 100<500 600 600 600>
LayerCount: 2
Fore
SplineSet
50 0 m 1xc620
 50 200 l 1
 150 200 l 1
 150 100 l 1
 550 100 l 1
 550 0 l 1
 50 0 l 1xc620
50 600 m 1
 50 700 l 1
 550 700 l 1
 550 500 l 1x8e20
 450 500 l 1x9440
 450 600 l 1
 50 600 l 1
150 200 m 1xc6
 150 300 l 1
 250 300 l 1
 250 200 l 1xc5
 150 200 l 1xc6
250 300 m 1
 250 400 l 1
 350 400 l 1
 350 300 l 1xa480
 250 300 l 1
350 400 m 1
 350 500 l 1
 450 500 l 1
 450 400 l 1x9440
 350 400 l 1
EndSplineSet
EndChar

StartChar: bracketleft
Encoding: 91 91 60
Width: 300
GlyphClass: 1
Flags: MW
HStem: 0 100<150 250 150 250> 600 100<150 250 150 150>
VStem: 50 100<100 600 100 700> 50 200<0 100 600 700>
LayerCount: 2
Fore
SplineSet
50 0 m 1xd0
 50 700 l 1
 250 700 l 1
 250 600 l 1xd0
 150 600 l 1
 150 100 l 1xe0
 250 100 l 1
 250 0 l 1
 50 0 l 1xd0
EndSplineSet
EndChar

StartChar: backslash
Encoding: 92 92 61
Width: 800
GlyphClass: 1
Flags: MW
HStem: 0 100<650 750> 100 100<550 650> 200 100<450 550> 300 100<350 450> 400 100<250 350> 500 100<150 250> 600 100<50 150 50 150 50 250>
VStem: 50 100<600 700> 150 100<500 600> 250 100<400 500> 350 100<300 400> 450 100<200 300> 550 100<100 200> 650 100<0 100 0 100 0 200 0 100>
LayerCount: 2
Fore
SplineSet
50 600 m 1x03
 50 700 l 1
 150 700 l 1x03
 150 600 l 1x05
 50 600 l 1x03
150 500 m 1x0480
 150 600 l 1x05
 250 600 l 1x0480
 250 500 l 1x0880
 150 500 l 1x0480
250 400 m 1x0840
 250 500 l 1x0880
 350 500 l 1x0840
 350 400 l 1x1040
 250 400 l 1x0840
350 300 m 1x1020
 350 400 l 1x1040
 450 400 l 1x1020
 450 300 l 1x2020
 350 300 l 1x1020
450 200 m 1x2010
 450 300 l 1x2020
 550 300 l 1x2010
 550 200 l 1x4010
 450 200 l 1x2010
550 100 m 1x4008
 550 200 l 1x4010
 650 200 l 1x4008
 650 100 l 1x8008
 550 100 l 1x4008
650 0 m 1x8004
 650 100 l 1x8008
 750 100 l 1
 750 0 l 1
 650 0 l 1x8004
EndSplineSet
EndChar

StartChar: bracketright
Encoding: 93 93 62
Width: 300
GlyphClass: 1
Flags: MW
HStem: 0 100<50 150 50 150 50 250> 600 100<50 150 50 250>
VStem: 50 200<0 100 100 100 600 700 0 700> 150 100<100 600 600 600>
LayerCount: 2
Fore
SplineSet
50 0 m 1xe0
 50 100 l 1xe0
 150 100 l 1
 150 600 l 1xd0
 50 600 l 1
 50 700 l 1
 250 700 l 1
 250 0 l 1
 50 0 l 1xe0
EndSplineSet
EndChar

StartChar: asciicircum
Encoding: 94 94 63
Width: 600
GlyphClass: 1
Flags: MW
HStem: 400 100<50 150 50 150 450 550> 500 100<50 250 150 250 150 250 150 250 350 450> 600 100<150 350 250 350 250 350 250 350 250 450>
VStem: 50 100<400 500 400 500> 150 100<400 600 500 600 500 600> 250 100<500 600 500 600 600 700> 350 100<500 600> 450 100<400 500 400 500 400 600 400 500>
LayerCount: 2
Fore
SplineSet
50 400 m 1x90
 50 500 l 1
 150 500 l 1
 150 400 l 1
 50 400 l 1x90
150 500 m 1
 150 600 l 1
 250 600 l 1
 250 500 l 1x48
 150 500 l 1
250 600 m 1
 250 700 l 1
 350 700 l 1x24
 350 600 l 1x44
 250 600 l 1
350 500 m 1x42
 350 600 l 1x44
 450 600 l 1x42
 450 500 l 1x82
 350 500 l 1x42
450 400 m 1x81
 450 500 l 1x82
 550 500 l 1
 550 400 l 1
 450 400 l 1x81
EndSplineSet
EndChar

StartChar: underscore
Encoding: 95 95 64
Width: 600
GlyphClass: 1
Flags: MW
HStem: -100 100<50 550 50 550>
LayerCount: 2
Fore
SplineSet
50 0 m 1
 550 0 l 1
 550 -100 l 1
 50 -100 l 1
 50 0 l 1
EndSplineSet
EndChar

StartChar: grave
Encoding: 96 96 65
Width: 300
GlyphClass: 1
Flags: MW
HStem: 500 100<150 250> 600 100<50 150 50 150 50 250>
VStem: 50 100<600 700> 150 100<500 600 500 600 500 700 500 600>
LayerCount: 2
Fore
SplineSet
50 600 m 1x60
 50 700 l 1
 150 700 l 1x60
 150 600 l 1xa0
 50 600 l 1x60
150 500 m 1x90
 150 600 l 1xa0
 250 600 l 1
 250 500 l 1
 150 500 l 1x90
EndSplineSet
EndChar

StartChar: a
Encoding: 97 97 66
Width: 600
GlyphClass: 1
Flags: MW
HStem: 0 100<150 350> 100 100<150 450 350 450 350 450 350 450> 400 100<50 450 150 450 150 450 150 450 150 550>
VStem: 50 100<100 400> 450 100<0 100 100 100 200 400 0 400 0 500 0 400>
LayerCount: 2
Fore
SplineSet
50 100 m 1x78
 50 400 l 1
 150 400 l 1
 150 500 l 1
 450 500 l 1
 450 400 l 1
 150 400 l 1
 150 100 l 1
 350 100 l 1
 350 0 l 1
 150 0 l 1
 150 100 l 1xb8
 50 100 l 1x78
350 100 m 1
 350 200 l 1
 450 200 l 1x78
 450 400 l 1
 550 400 l 1
 550 0 l 1
 450 0 l 1xb8
 450 100 l 1x78
 350 100 l 1
EndSplineSet
EndChar

StartChar: b
Encoding: 98 98 67
Width: 600
GlyphClass: 1
Flags: MW
HStem: 0 100<150 450> 400 100<150 450 150 450 150 550> 680 20G<50 150 150 150>
VStem: 50 100<100 400 500 700> 450 100<0 400 100 400 100 400 100 500 100 400>
LayerCount: 2
Fore
SplineSet
50 100 m 1
 50 700 l 1
 150 700 l 1
 150 500 l 1
 450 500 l 1
 450 400 l 1
 150 400 l 1
 150 100 l 1
 450 100 l 1
 450 0 l 1
 150 0 l 1
 150 100 l 1
 50 100 l 1
450 100 m 1
 450 400 l 1
 550 400 l 1
 550 100 l 1
 450 100 l 1
EndSplineSet
EndChar

StartChar: c
Encoding: 99 99 68
Width: 600
GlyphClass: 1
Flags: MW
HStem: 0 100<150 450> 100 100<150 550 450 550 450 550 450 550> 300 100<450 550> 400 100<50 450 150 450 150 450 150 450 150 550>
VStem: 50 100<100 400> 150 300<0 100 0 100 100 200 300 400 0 100 400 500> 450 100<0 200 100 200 100 200 300 400>
LayerCount: 2
Fore
SplineSet
50 100 m 1x48
 50 400 l 1
 150 400 l 1
 150 100 l 1x98
 50 100 l 1x48
150 0 m 1x84
 150 100 l 1x88
 450 100 l 1
 450 0 l 1
 150 0 l 1x84
150 400 m 1x18
 150 500 l 1
 450 500 l 1x14
 450 400 l 1x24
 150 400 l 1x18
450 100 m 1x84
 450 200 l 1
 550 200 l 1
 550 100 l 1x42
 450 100 l 1x84
450 300 m 1x22
 450 400 l 1x24
 550 400 l 1
 550 300 l 1
 450 300 l 1x22
EndSplineSet
EndChar

StartChar: d
Encoding: 100 100 69
Width: 600
GlyphClass: 1
Flags: MW
HStem: 0 100<150 450> 400 100<50 450 150 450 150 450 150 450> 680 20G<450 550 550 550>
VStem: 50 100<100 400> 450 100<0 700 100 400 400 400 500 700 100 700>
LayerCount: 2
Fore
SplineSet
50 100 m 1
 50 400 l 1
 150 400 l 1
 150 100 l 1
 50 100 l 1
150 0 m 1
 150 100 l 1
 450 100 l 1
 450 400 l 1
 150 400 l 1
 150 500 l 1
 450 500 l 1
 450 700 l 1
 550 700 l 1
 550 100 l 1
 450 100 l 1
 450 0 l 1
 150 0 l 1
EndSplineSet
EndChar

StartChar: e
Encoding: 101 101 70
Width: 600
GlyphClass: 1
Flags: MW
HStem: 0 100<150 550> 200 100<150 450 150 450> 300 100<150 450 450 550> 400 100<50 450 150 450 150 450 150 450 150 550>
VStem: 50 100<100 200 300 400> 450 100<300 400>
LayerCount: 2
Fore
SplineSet
50 100 m 1xcc
 50 400 l 1
 150 400 l 1
 150 500 l 1
 450 500 l 1xdc
 450 400 l 1
 550 400 l 1
 550 300 l 1xac
 450 300 l 1
 450 200 l 1
 150 200 l 1
 150 100 l 1
 550 100 l 1
 550 0 l 1
 150 0 l 1
 150 100 l 1
 50 100 l 1xcc
150 300 m 1
 450 300 l 1xdc
 450 400 l 1xac
 150 400 l 1
 150 300 l 1
EndSplineSet
EndChar

StartChar: f
Encoding: 102 102 71
Width: 500
GlyphClass: 1
Flags: MW
HStem: 0 21G<150 250 150 150> 300 100<50 150 50 150 250 450> 600 100<150 450 250 450 250 450 250 450>
VStem: 150 100<0 300 0 300 400 600>
LayerCount: 2
Fore
SplineSet
50 300 m 1
 50 400 l 1
 150 400 l 1
 150 600 l 1
 250 600 l 1
 250 700 l 1
 450 700 l 1
 450 600 l 1
 250 600 l 1
 250 400 l 1
 450 400 l 1
 450 300 l 1
 250 300 l 1
 250 0 l 1
 150 0 l 1
 150 300 l 1
 50 300 l 1
EndSplineSet
EndChar

StartChar: g
Encoding: 103 103 72
Width: 600
GlyphClass: 1
Flags: MW
HStem: -300 100<150 450 50 150> -200 100<50 150 50 150 50 450> 0 100<150 450> 400 100<50 450 150 450 150 450 150 450 150 550>
VStem: 50 100<-200 -100 100 400> 150 300<-300 -200 -300 -200 -200 -100 -300 -200 -300 100 100 400 400 500> 450 100<-300 400 -200 0 0 0 100 400 -200 400 -200 500 -200 400>
LayerCount: 2
Fore
SplineSet
50 100 m 1xb8
 50 400 l 1
 150 400 l 1xb8
 150 500 l 1
 450 500 l 1
 450 400 l 1xb4
 550 400 l 1
 550 -200 l 1x72
 450 -200 l 1xb4
 450 0 l 1xb2
 150 0 l 1xb4
 150 100 l 1
 450 100 l 1xba
 450 400 l 1xb4
 150 400 l 1
 150 100 l 1
 50 100 l 1xb8
50 -100 m 1x78
 150 -100 l 1x78
 150 -200 l 1xb8
 450 -200 l 1
 450 -300 l 1
 150 -300 l 1xb4
 150 -200 l 1xb8
 50 -200 l 1
 50 -100 l 1x78
EndSplineSet
EndChar

StartChar: h
Encoding: 104 104 73
Width: 600
GlyphClass: 1
Flags: MW
HStem: 0 21G<50 50 50 150 450 450 450 550> 300 100<150 250 150 250> 400 100<150 450 250 450 250 450 250 450 250 550> 680 20G<50 150 150 150>
VStem: 50 100<0 300 400 700> 450 100<0 400 0 400 0 500 0 400>
LayerCount: 2
Fore
SplineSet
50 0 m 1xdc
 50 700 l 1
 150 700 l 1
 150 400 l 1
 250 400 l 1xdc
 250 500 l 1
 450 500 l 1
 450 400 l 1
 550 400 l 1
 550 0 l 1
 450 0 l 1
 450 400 l 1xbc
 250 400 l 1
 250 300 l 1
 150 300 l 1
 150 0 l 1
 50 0 l 1xdc
EndSplineSet
EndChar

StartChar: i
Encoding: 105 105 74
Width: 200
GlyphClass: 1
Flags: MW
HStem: 0 21G<50 50 50 150> 480 20G<50 150 150 150> 600 100<50 150 50 150>
VStem: 50 100<0 500 0 500 600 700>
LayerCount: 2
Fore
SplineSet
50 0 m 1
 50 500 l 1
 150 500 l 1
 150 0 l 1
 50 0 l 1
50 600 m 1
 50 700 l 1
 150 700 l 1
 150 600 l 1
 50 600 l 1
EndSplineSet
EndChar

StartChar: j
Encoding: 106 106 75
Width: 300
GlyphClass: 1
Flags: MW
HStem: -100 100<50 150 50 250 50 150> 480 20G<150 250 250 250> 600 100<150 250 150 250>
VStem: 150 100<0 500 600 700>
LayerCount: 2
Fore
SplineSet
50 0 m 1
 150 0 l 1
 150 500 l 1
 250 500 l 1
 250 0 l 1
 250 -100 l 1
 50 -100 l 1
 50 0 l 1
150 600 m 1
 150 700 l 1
 250 700 l 1
 250 600 l 1
 150 600 l 1
EndSplineSet
EndChar

StartChar: k
Encoding: 107 107 76
Width: 500
GlyphClass: 1
Flags: MW
HStem: 0 100<350 450 250 350> 100 100<250 350 150 250> 200 100<150 250 150 250 250 350> 300 100<150 350 250 350 250 350 250 350> 400 100<250 450 350 450 350 450 350 450> 680 20G<50 150 150 150>
VStem: 50 100<0 200 300 700> 250 100<100 200 300 400> 350 100<0 100 0 100 0 200 0 100 400 500>
LayerCount: 2
Fore
SplineSet
50 0 m 1xa7
 50 700 l 1
 150 700 l 1
 150 300 l 1
 250 300 l 1xa7
 250 200 l 1
 350 200 l 1x47
 350 100 l 1x87
 250 100 l 1
 250 200 l 1x47
 150 200 l 1
 150 0 l 1
 50 0 l 1xa7
250 300 m 1
 250 400 l 1
 350 400 l 1
 350 300 l 1x17
 250 300 l 1
350 0 m 1x8680
 350 100 l 1x87
 450 100 l 1
 450 0 l 1
 350 0 l 1x8680
350 400 m 1x17
 350 500 l 1
 450 500 l 1
 450 400 l 1x0e80
 350 400 l 1x17
EndSplineSet
EndChar

StartChar: l
Encoding: 108 108 77
Width: 200
GlyphClass: 1
Flags: MW
HStem: 0 21G<50 50 50 150> 680 20G<50 150 150 150>
VStem: 50 100<0 700 0 700>
LayerCount: 2
Fore
SplineSet
50 0 m 1
 50 700 l 1
 150 700 l 1
 150 0 l 1
 50 0 l 1
EndSplineSet
EndChar

StartChar: m
Encoding: 109 109 78
Width: 900
GlyphClass: 1
Flags: MW
HStem: 0 21G<50 50 50 150 450 450 450 550 750 850 750 750> 300 100<150 250 150 250> 400 100<50 250 250 450 550 750>
VStem: 50 100<0 300 400 500> 450 100<0 400 0 400 400 500 0 400> 750 100<0 400 0 400 0 500 0 400>
LayerCount: 2
Fore
SplineSet
50 0 m 1xdc
 50 500 l 1
 150 500 l 1xbc
 150 400 l 1
 250 400 l 1xdc
 250 500 l 1
 450 500 l 1
 450 400 l 1
 550 400 l 1
 550 0 l 1
 450 0 l 1
 450 400 l 1xbc
 250 400 l 1
 250 300 l 1
 150 300 l 1
 150 0 l 1
 50 0 l 1xdc
550 400 m 1
 550 500 l 1
 750 500 l 1
 750 400 l 1
 550 400 l 1
750 0 m 1
 750 400 l 1
 850 400 l 1
 850 0 l 1
 750 0 l 1
EndSplineSet
EndChar

StartChar: n
Encoding: 110 110 79
Width: 600
GlyphClass: 1
Flags: MW
HStem: 0 21G<50 50 50 150 450 450 450 550> 300 100<150 250 150 250> 400 100<50 250 250 450>
VStem: 50 100<0 300 400 500> 450 100<0 400 0 400 0 500 0 400>
LayerCount: 2
Fore
SplineSet
50 0 m 1xd8
 50 500 l 1
 150 500 l 1xb8
 150 400 l 1
 250 400 l 1xd8
 250 500 l 1
 450 500 l 1
 450 400 l 1
 550 400 l 1
 550 0 l 1
 450 0 l 1
 450 400 l 1xb8
 250 400 l 1
 250 300 l 1
 150 300 l 1
 150 0 l 1
 50 0 l 1xd8
EndSplineSet
EndChar

StartChar: o
Encoding: 111 111 80
Width: 600
GlyphClass: 1
Flags: MW
HStem: 0 100<150 450> 100 300<50 150 50 150 150 450 450 550> 400 100<50 450 150 450 150 450 150 450 150 550>
VStem: 50 100<100 400> 150 300<0 100 0 100 100 400 0 100 400 500> 450 100<0 400 100 400 100 400 100 400 100 500>
LayerCount: 2
Fore
SplineSet
50 100 m 1x50
 50 400 l 1
 150 400 l 1x50
 150 100 l 1x90
 50 100 l 1x50
150 0 m 1x88
 150 100 l 1x90
 450 100 l 1
 450 0 l 1
 150 0 l 1x88
150 400 m 1x50
 150 500 l 1
 450 500 l 1x28
 450 400 l 1x48
 150 400 l 1x50
450 100 m 1x88
 450 400 l 1x48
 550 400 l 1
 550 100 l 1x44
 450 100 l 1x88
EndSplineSet
EndChar

StartChar: p
Encoding: 112 112 81
Width: 600
GlyphClass: 1
Flags: MW
HStem: -200 21G<50 50 50 150> 0 100<150 450 150 450> 400 100<50 450 150 450 150 450 150 450 150 550>
VStem: 50 100<-200 0 100 400> 450 100<0 400 100 400 100 400 100 500 100 400>
LayerCount: 2
Fore
SplineSet
50 -200 m 1
 50 400 l 1
 150 400 l 1
 150 500 l 1
 450 500 l 1
 450 400 l 1
 150 400 l 1
 150 100 l 1
 450 100 l 1
 450 0 l 1
 150 0 l 1
 150 -200 l 1
 50 -200 l 1
450 100 m 1
 450 400 l 1
 550 400 l 1
 550 100 l 1
 450 100 l 1
EndSplineSet
EndChar

StartChar: q
Encoding: 113 113 82
Width: 600
GlyphClass: 1
Flags: MW
HStem: -200 21G<450 550 450 450> 0 100<150 450> 400 100<50 450 150 450 150 450 150 450 150 550>
VStem: 50 100<100 400> 450 100<-200 0 0 0 100 400 -200 400 -200 500 -200 400>
LayerCount: 2
Fore
SplineSet
50 100 m 1
 50 400 l 1
 150 400 l 1
 150 100 l 1
 50 100 l 1
150 0 m 1
 150 100 l 1
 450 100 l 1
 450 400 l 1
 150 400 l 1
 150 500 l 1
 450 500 l 1
 450 400 l 1
 550 400 l 1
 550 -200 l 1
 450 -200 l 1
 450 0 l 1
 150 0 l 1
EndSplineSet
EndChar

StartChar: r
Encoding: 114 114 83
Width: 500
GlyphClass: 1
Flags: MW
HStem: 0 21G<50 50 50 150> 300 100<150 250 150 250> 400 100<50 250 250 450>
VStem: 50 100<0 300 400 500>
LayerCount: 2
Fore
SplineSet
50 0 m 1xd0
 50 500 l 1
 150 500 l 1xb0
 150 400 l 1
 250 400 l 1xd0
 250 500 l 1
 450 500 l 1
 450 400 l 1xb0
 250 400 l 1
 250 300 l 1
 150 300 l 1
 150 0 l 1
 50 0 l 1xd0
EndSplineSet
EndChar

StartChar: s
Encoding: 115 115 84
Width: 600
GlyphClass: 1
Flags: MW
HStem: 0 100<50 450 50 450> 100 100<150 150 150 450 450 550> 200 100<150 450> 300 100<50 150 50 150 150 450 450 450> 400 100<50 550 150 550 150 550 150 550>
VStem: 50 100<300 400> 450 100<0 200 100 200 100 200 100 200 100 300>
LayerCount: 2
Fore
SplineSet
50 0 m 1x86
 50 100 l 1
 450 100 l 1
 450 0 l 1
 50 0 l 1x86
50 300 m 1x16
 50 400 l 1
 150 400 l 1x16
 150 300 l 1x26
 50 300 l 1x16
150 200 m 1x26
 150 300 l 1
 450 300 l 1x26
 450 200 l 1x46
 150 200 l 1x26
150 400 m 1x16
 150 500 l 1
 550 500 l 1
 550 400 l 1x0e
 150 400 l 1x16
450 100 m 1x86
 450 200 l 1
 550 200 l 1
 550 100 l 1x46
 450 100 l 1x86
EndSplineSet
EndChar

StartChar: t
Encoding: 116 116 85
Width: 410
GlyphClass: 1
Flags: MW
HStem: 0 21G<150 250 150 150> 400 100<50 150 50 150 250 360> 680 20G<150 250 250 250>
VStem: 150 100<0 400 0 400 500 700>
LayerCount: 2
Fore
SplineSet
50 400 m 1
 50 500 l 1
 150 500 l 1
 150 700 l 1
 250 700 l 1
 250 500 l 1
 360 500 l 1
 360 400 l 1
 250 400 l 1
 250 0 l 1
 150 0 l 1
 150 400 l 1
 50 400 l 1
EndSplineSet
EndChar

StartChar: u
Encoding: 117 117 86
Width: 600
GlyphClass: 1
Flags: MW
HStem: 0 100<150 350> 100 100<150 450 350 450 350 450 350 450> 480 20G<50 150 150 150 450 550 550 550>
VStem: 50 100<100 500> 450 100<0 100 100 100 200 500 0 500>
LayerCount: 2
Fore
SplineSet
50 100 m 1x78
 50 500 l 1
 150 500 l 1
 150 100 l 1
 350 100 l 1xb8
 350 200 l 1
 450 200 l 1x78
 450 500 l 1
 550 500 l 1
 550 0 l 1
 450 0 l 1xb8
 450 100 l 1x78
 350 100 l 1
 350 0 l 1
 150 0 l 1
 150 100 l 1xb8
 50 100 l 1x78
EndSplineSet
EndChar

StartChar: v
Encoding: 118 118 87
Width: 600
GlyphClass: 1
Flags: MW
HStem: 0 100<250 350> 100 200<50 150 150 250 350 450> 300 200<50 150 50 150 50 250 50 250 450 550>
VStem: 50 100<300 500> 150 100<100 300> 250 100<0 100 0 100 100 300 0 100> 350 100<0 300 100 300 100 300> 450 100<100 500 300 500 300 500>
LayerCount: 2
Fore
SplineSet
50 300 m 1x30
 50 500 l 1
 150 500 l 1x30
 150 300 l 1x50
 50 300 l 1x30
150 100 m 1x48
 150 300 l 1x50
 250 300 l 1x48
 250 100 l 1x88
 150 100 l 1x48
250 0 m 1x84
 250 100 l 1x88
 350 100 l 1x84
 350 300 l 1
 450 300 l 1
 450 100 l 1x42
 350 100 l 1
 350 0 l 1
 250 0 l 1x84
450 300 m 1x42
 450 500 l 1
 550 500 l 1
 550 300 l 1x21
 450 300 l 1x42
EndSplineSet
EndChar

StartChar: w
Encoding: 119 119 88
Width: 1000
GlyphClass: 1
Flags: MW
HStem: 0 100<250 350 150 250 650 750> 100 200<150 250 50 150 350 450 550 650 750 850> 300 200<50 150 50 150 50 250 50 250 450 550 850 950>
VStem: 50 100<300 500> 150 100<100 300> 250 100<0 100 0 100 100 300 0 100> 350 100<0 300 100 300 100 300> 450 100<100 300 100 300 300 500> 550 100<100 300> 650 100<0 100 0 100 100 300 0 100> 750 100<0 300 100 300 100 300> 850 100<100 500 300 500 300 500>
LayerCount: 2
Fore
SplineSet
50 300 m 1x30
 50 500 l 1
 150 500 l 1x30
 150 300 l 1x50
 250 300 l 1x48
 250 100 l 1x88
 350 100 l 1
 350 0 l 1
 250 0 l 1x84
 250 100 l 1x88
 150 100 l 1x48
 150 300 l 1x50
 50 300 l 1x30
350 100 m 1x84
 350 300 l 1
 450 300 l 1
 450 100 l 1x42
 350 100 l 1x84
450 300 m 1
 450 500 l 1
 550 500 l 1x21
 550 300 l 1x41
 450 300 l 1
550 100 m 1x4080
 550 300 l 1x41
 650 300 l 1x4080
 650 100 l 1x8080
 550 100 l 1x4080
650 0 m 1x8040
 650 100 l 1x8080
 750 100 l 1x8040
 750 300 l 1
 850 300 l 1
 850 100 l 1x4020
 750 100 l 1
 750 0 l 1
 650 0 l 1x8040
850 300 m 1x4020
 850 500 l 1
 950 500 l 1
 950 300 l 1x2010
 850 300 l 1x4020
EndSplineSet
EndChar

StartChar: x
Encoding: 120 120 89
Width: 600
GlyphClass: 1
Flags: MW
HStem: 0 100<50 150 50 150 450 550> 100 100<50 250 150 250 150 250 150 250 350 450> 200 100<150 250 250 350 150 250 150 250 350 450> 300 100<150 250 350 450> 400 100<50 150 50 150 50 250 450 550>
VStem: 50 100<0 100 0 100 400 500> 150 100<0 200 100 200 100 200 300 400> 250 100<100 200 100 200 200 300 300 400> 350 100<100 200 300 400> 450 100<0 100 0 100 0 200 0 100 400 500>
LayerCount: 2
Fore
SplineSet
50 0 m 1x84
 50 100 l 1
 150 100 l 1
 150 0 l 1
 50 0 l 1x84
50 400 m 1x0c
 50 500 l 1
 150 500 l 1x0c
 150 400 l 1x14
 250 400 l 1x12
 250 300 l 1x22
 150 300 l 1x12
 150 400 l 1x14
 50 400 l 1x0c
150 100 m 1x84
 150 200 l 1
 250 200 l 1
 250 100 l 1x42
 150 100 l 1x84
250 200 m 1
 250 300 l 1x22
 350 300 l 1x21
 350 200 l 1x41
 250 200 l 1
350 100 m 1x4080
 350 200 l 1x41
 450 200 l 1x4080
 450 100 l 1x8080
 350 100 l 1x4080
350 300 m 1x21
 350 400 l 1
 450 400 l 1
 450 300 l 1x1080
 350 300 l 1x21
450 0 m 1x8040
 450 100 l 1x8080
 550 100 l 1
 550 0 l 1
 450 0 l 1x8040
450 400 m 1x1080
 450 500 l 1
 550 500 l 1
 550 400 l 1x0840
 450 400 l 1x1080
EndSplineSet
EndChar

StartChar: y
Encoding: 121 121 90
Width: 600
GlyphClass: 1
Flags: MW
HStem: -300 100<150 450 50 150> -200 100<50 150 50 150 50 450> 0 100<150 350> 100 100<150 450 350 450 350 450 350 450> 480 20G<50 150 150 150 450 550 550 550>
VStem: 50 100<-200 -100 100 500> 450 100<-300 500 -200 100 100 100 200 500 -200 500>
LayerCount: 2
Fore
SplineSet
50 100 m 1x1e
 50 500 l 1
 150 500 l 1
 150 100 l 1x2e
 50 100 l 1x1e
50 -100 m 1x4e
 150 -100 l 1x4e
 150 -200 l 1x8e
 50 -200 l 1
 50 -100 l 1x4e
150 0 m 1x2e
 150 100 l 1
 350 100 l 1
 350 0 l 1
 150 0 l 1x2e
150 -200 m 1x8e
 450 -200 l 1
 450 -300 l 1
 150 -300 l 1
 150 -200 l 1x8e
350 100 m 1x2e
 350 200 l 1
 450 200 l 1
 450 500 l 1
 550 500 l 1
 550 -200 l 1x5e
 450 -200 l 1
 450 100 l 1x9e
 350 100 l 1x2e
EndSplineSet
EndChar

StartChar: z
Encoding: 122 122 91
Width: 600
GlyphClass: 1
Flags: MW
HStem: 0 100<50 150 50 150 250 550> 200 100<150 350 250 350 250 350 250 350> 400 100<50 550 50 350 450 450 450 550>
VStem: 150 100<100 200 100 200> 250 100<100 300 200 300 200 300>
CounterMasks: 1 e0
LayerCount: 2
Fore
SplineSet
50 0 m 1xf0
 50 100 l 1
 150 100 l 1
 150 200 l 1
 250 200 l 1xf0
 250 300 l 1
 350 300 l 1
 350 200 l 1xe8
 250 200 l 1
 250 100 l 1
 550 100 l 1
 550 0 l 1
 50 0 l 1xf0
50 400 m 1
 50 500 l 1
 550 500 l 1
 550 400 l 1
 450 400 l 1
 450 300 l 1
 350 300 l 1
 350 400 l 1xe8
 50 400 l 1
EndSplineSet
EndChar

StartChar: braceleft
Encoding: 123 123 92
Width: 400
GlyphClass: 1
Flags: MW
HStem: 0 100<250 350 250 350> 300 100<50 150 50 150> 600 100<250 350 250 250>
VStem: 150 100<100 300 300 300 400 600 100 700> 150 200<0 100 0 300 600 700>
CounterMasks: 1 e0
LayerCount: 2
Fore
SplineSet
50 300 m 1xf0
 50 400 l 1
 150 400 l 1xf0
 150 700 l 1
 350 700 l 1
 350 600 l 1xe8
 250 600 l 1
 250 100 l 1xf0
 350 100 l 1
 350 0 l 1
 150 0 l 1xe8
 150 300 l 1
 50 300 l 1xf0
EndSplineSet
EndChar

StartChar: bar
Encoding: 124 124 93
Width: 200
GlyphClass: 1
Flags: MW
HStem: 680 20G<50 150 150 150>
VStem: 50 100<-100 700 -100 700>
LayerCount: 2
Fore
SplineSet
50 -100 m 1
 50 700 l 1
 150 700 l 1
 150 -100 l 1
 50 -100 l 1
EndSplineSet
EndChar

StartChar: braceright
Encoding: 125 125 94
Width: 400
GlyphClass: 1
Flags: MW
HStem: 0 100<50 150 50 150 50 250> 300 100<250 350 250 350> 600 100<50 150 50 250>
VStem: 50 200<0 100 100 100 600 700> 150 100<100 300 400 600 600 600>
CounterMasks: 1 e0
LayerCount: 2
Fore
SplineSet
50 0 m 1xf0
 50 100 l 1xf0
 150 100 l 1
 150 600 l 1xe8
 50 600 l 1
 50 700 l 1
 250 700 l 1xf0
 250 400 l 1
 350 400 l 1
 350 300 l 1
 250 300 l 1xe8
 250 0 l 1
 50 0 l 1xf0
EndSplineSet
EndChar

StartChar: asciitilde
Encoding: 126 126 95
Width: 500
GlyphClass: 1
Flags: MW
HStem: 500 100<250 450> 600 100<50 250 50 250 50 450>
LayerCount: 2
Fore
SplineSet
50 600 m 1x40
 50 700 l 1
 250 700 l 1x40
 250 600 l 1
 450 600 l 1
 450 500 l 1
 250 500 l 1
 250 600 l 1x80
 50 600 l 1x40
EndSplineSet
EndChar

StartChar: sterling
Encoding: 163 163 96
Width: 700
GlyphClass: 1
Flags: MW
HStem: 0 100<50 150 50 150 250 550> 200 100<50 150 50 150 250 450> 500 21G<450 550 450 450> 600 100<150 550 250 550 250 450 250 550>
VStem: 150 100<100 200 100 200 300 600> 450 100<100 300 100 200 500 600 600 600> 550 100<100 200 0 200>
LayerCount: 2
Fore
SplineSet
50 0 m 1xfa
 50 100 l 1
 150 100 l 1
 150 200 l 1
 50 200 l 1
 50 300 l 1
 150 300 l 1
 150 600 l 1
 250 600 l 1
 250 700 l 1
 550 700 l 1xfa
 550 500 l 1
 450 500 l 1
 450 600 l 1
 250 600 l 1
 250 300 l 1
 450 300 l 1
 450 200 l 1xfc
 250 200 l 1
 250 100 l 1
 550 100 l 1
 550 200 l 1
 650 200 l 1
 650 0 l 1
 50 0 l 1xfa
EndSplineSet
EndChar

StartChar: Euro
Encoding: 8364 8364 97
Width: 600
GlyphClass: 1
Flags: MW
HStem: 0 100<250 550 150 250> 200 100<50 150 50 150 250 450> 400 100<50 150 50 150 250 450> 600 100<150 550 250 550 250 550 250 550>
VStem: 150 100<100 200 300 400 500 600> 250 300<0 100 0 100 0 200 0 100 0 400 0 300 600 700>
LayerCount: 2
Fore
SplineSet
50 200 m 1xf8
 50 300 l 1
 150 300 l 1
 150 400 l 1
 50 400 l 1
 50 500 l 1
 150 500 l 1
 150 600 l 1
 250 600 l 1xf8
 250 700 l 1
 550 700 l 1
 550 600 l 1xf4
 250 600 l 1
 250 500 l 1
 450 500 l 1
 450 400 l 1
 250 400 l 1
 250 300 l 1
 450 300 l 1
 450 200 l 1
 250 200 l 1
 250 100 l 1xf8
 550 100 l 1
 550 0 l 1
 250 0 l 1xf4
 250 100 l 1
 150 100 l 1
 150 200 l 1
 50 200 l 1xf8
EndSplineSet
EndChar

StartChar: uni20BD
Encoding: 8381 8381 98
Width: 600
GlyphClass: 1
Flags: MW
HStem: 0 21G<150 250 150 150> 100 100<50 150 50 150 250 350> 300 100<50 150 50 150 250 450> 600 100<250 450 250 250 150 550>
VStem: 150 100<0 100 0 100 200 300 400 600> 450 100<300 600 400 600 400 600 400 700 400 600>
LayerCount: 2
Fore
SplineSet
50 100 m 1
 50 200 l 1
 150 200 l 1
 150 300 l 1
 50 300 l 1
 50 400 l 1
 150 400 l 1
 150 700 l 1
 450 700 l 1
 450 600 l 1
 550 600 l 1
 550 400 l 1
 450 400 l 1
 450 600 l 1
 250 600 l 1
 250 400 l 1
 450 400 l 1
 450 300 l 1
 250 300 l 1
 250 200 l 1
 350 200 l 1
 350 100 l 1
 250 100 l 1
 250 0 l 1
 150 0 l 1
 150 100 l 1
 50 100 l 1
EndSplineSet
EndChar

StartChar: BasePixel
Encoding: 57344 57344 99
Width: 200
GlyphClass: 1
Flags: MW
HStem: 0 100<50 150 50 150>
VStem: 50 100<0 100 0 100>
LayerCount: 2
Fore
SplineSet
50 0 m 1
 50 100 l 1
 150 100 l 1
 150 0 l 1
 50 0 l 1
EndSplineSet
EndChar

StartChar: Line5x1
Encoding: 57345 57345 100
Width: 600
GlyphClass: 1
Flags: MW
HStem: 0 100<50 550 50 550>
LayerCount: 2
Fore
SplineSet
50 0 m 1
 50 100 l 1
 550 100 l 1
 550 0 l 1
 50 0 l 1
EndSplineSet
EndChar

StartChar: Line3x1
Encoding: 57346 57346 101
Width: 400
GlyphClass: 1
Flags: MW
HStem: 0 100<50 350 50 350>
VStem: 50 300<0 100 0 100>
LayerCount: 2
Fore
SplineSet
50 0 m 1
 50 100 l 1
 350 100 l 1
 350 0 l 1
 50 0 l 1
EndSplineSet
EndChar
